<?xml version="1.0" encoding="UTF-8"?>
<svg width="32px" height="32px" viewBox="0 0 32 32" xmlns="http://www.w3.org/2000/svg" xmlns:xlink="http://www.w3.org/1999/xlink" version="1.1">
 <!-- Generated by Pixelmator Pro 2.0.5 -->
 <path id="Ellipse" d="M32 16 C32 7.163 24.837 0 16 0 7.163 0 0 7.163 0 16 0 24.837 7.163 32 16 32 24.837 32 32 24.837 32 16 Z" fill="#cf000a" fill-opacity="1" stroke="none"/>
 <g id="New-Group-Icon">
  <path id="path2634" d="M15.88 20.404 C15.586 20.371 15.297 20.202 15.118 19.96 15.022 19.829 14.945 19.646 14.92 19.488 14.915 19.457 14.909 19.43 14.907 19.428 14.905 19.426 14.869 19.431 14.826 19.439 14.736 19.456 14.562 19.458 14.481 19.444 14.22 19.4 14.015 19.289 13.826 19.09 13.627 18.881 13.534 18.687 13.505 18.424 13.478 18.178 13.551 17.908 13.699 17.702 13.725 17.666 13.757 17.627 13.77 17.615 13.782 17.603 14.151 17.348 14.59 17.049 L15.387 16.504 15.433 16.551 C15.556 16.676 15.704 16.75 15.9 16.781 L15.932 16.786 15.932 17.626 15.932 17.885 15.951 17.908 C15.977 17.938 16.027 17.939 16.057 17.911 L16.078 17.891 16.078 17.629 16.078 16.786 16.11 16.781 C16.306 16.75 16.454 16.676 16.577 16.55 L16.623 16.503 17.416 17.044 C17.852 17.341 18.221 17.596 18.236 17.611 18.279 17.652 18.355 17.762 18.397 17.846 18.524 18.093 18.547 18.393 18.46 18.651 18.402 18.82 18.324 18.943 18.176 19.098 17.993 19.289 17.786 19.4 17.529 19.444 17.449 19.458 17.271 19.455 17.183 19.439 17.14 19.431 17.104 19.426 17.102 19.428 17.1 19.43 17.095 19.457 17.09 19.488 17.055 19.704 16.939 19.93 16.781 20.088 16.626 20.243 16.398 20.361 16.186 20.396 16.104 20.409 15.961 20.413 15.88 20.404 Z M12.403 17.886 C12.069 17.846 11.809 17.745 11.554 17.557 11.342 17.4 11.159 17.18 11.044 16.942 L10.997 16.845 10.967 16.85 C10.95 16.852 10.885 16.857 10.821 16.86 10.647 16.867 10.503 16.839 10.345 16.765 10.055 16.629 9.842 16.375 9.762 16.069 L9.742 15.99 9.758 15.927 C9.843 15.587 10.086 15.311 10.41 15.186 10.53 15.139 10.634 15.12 10.77 15.119 10.833 15.118 10.91 15.121 10.941 15.125 L10.997 15.132 11.044 15.035 C11.211 14.69 11.486 14.419 11.836 14.252 12.079 14.136 12.292 14.089 12.57 14.09 12.843 14.09 13.079 14.146 13.319 14.266 13.374 14.293 13.734 14.534 14.348 14.952 14.868 15.306 15.295 15.597 15.296 15.599 15.298 15.601 15.29 15.624 15.278 15.651 15.245 15.725 15.229 15.78 15.218 15.849 L15.208 15.911 14.366 15.913 13.524 15.915 13.501 15.936 C13.464 15.971 13.473 16.031 13.52 16.055 13.533 16.063 13.755 16.065 14.373 16.065 L15.208 16.065 15.218 16.128 C15.229 16.197 15.245 16.251 15.278 16.325 15.29 16.352 15.298 16.376 15.296 16.377 15.295 16.379 14.868 16.67 14.348 17.024 13.734 17.443 13.374 17.683 13.319 17.71 13.15 17.795 12.956 17.855 12.771 17.879 12.683 17.89 12.473 17.895 12.403 17.886 Z M19.229 17.878 C19.005 17.848 18.703 17.739 18.564 17.639 18.543 17.624 18.123 17.336 17.63 17.001 17.137 16.665 16.728 16.385 16.722 16.379 16.713 16.37 16.713 16.362 16.727 16.334 16.755 16.28 16.781 16.195 16.792 16.128 L16.802 16.066 17.65 16.063 18.497 16.061 18.514 16.041 C18.531 16.019 18.535 15.971 18.522 15.946 18.517 15.937 18.501 15.926 18.486 15.921 18.467 15.914 18.213 15.911 17.63 15.911 L16.802 15.911 16.792 15.848 C16.781 15.781 16.755 15.696 16.727 15.642 16.713 15.614 16.713 15.607 16.722 15.598 16.728 15.591 17.137 15.312 17.63 14.976 18.123 14.64 18.543 14.353 18.564 14.337 18.617 14.299 18.757 14.231 18.858 14.193 19.025 14.13 19.273 14.085 19.444 14.085 19.692 14.085 19.962 14.148 20.189 14.259 20.531 14.426 20.801 14.696 20.965 15.035 L21.013 15.132 21.068 15.125 C21.162 15.113 21.34 15.117 21.42 15.134 21.644 15.179 21.829 15.281 21.985 15.444 22.118 15.584 22.205 15.741 22.252 15.927 L22.268 15.99 22.247 16.069 C22.142 16.475 21.804 16.782 21.387 16.85 21.301 16.865 21.132 16.864 21.043 16.85 L21.013 16.845 20.966 16.942 C20.684 17.523 20.088 17.895 19.443 17.891 19.373 17.891 19.276 17.885 19.229 17.878 Z M15.868 16.619 C15.64 16.569 15.447 16.385 15.382 16.155 15.354 16.059 15.354 15.917 15.382 15.821 15.413 15.71 15.463 15.626 15.546 15.542 15.672 15.413 15.801 15.355 15.971 15.347 16.094 15.342 16.173 15.358 16.288 15.413 16.533 15.532 16.682 15.804 16.644 16.064 16.596 16.396 16.325 16.633 15.999 16.631 15.955 16.63 15.896 16.625 15.868 16.619 Z M14.585 14.926 C13.824 14.409 13.78 14.377 13.736 14.322 13.442 13.952 13.42 13.455 13.682 13.062 13.753 12.955 13.934 12.769 14.024 12.711 14.161 12.622 14.31 12.562 14.457 12.537 14.58 12.515 14.757 12.519 14.882 12.546 L14.909 12.551 14.919 12.486 C14.943 12.339 15.013 12.166 15.1 12.041 15.266 11.8 15.542 11.626 15.833 11.579 15.912 11.566 16.1 11.566 16.177 11.579 16.33 11.604 16.505 11.675 16.633 11.762 16.718 11.821 16.849 11.952 16.908 12.038 16.998 12.169 17.067 12.338 17.09 12.484 L17.101 12.551 17.127 12.546 C17.252 12.519 17.43 12.516 17.552 12.537 17.758 12.573 17.958 12.671 18.107 12.81 18.374 13.059 18.498 13.307 18.51 13.617 18.521 13.885 18.428 14.144 18.245 14.358 18.233 14.373 17.863 14.63 17.423 14.929 L16.623 15.473 16.577 15.426 C16.454 15.3 16.306 15.227 16.11 15.195 L16.078 15.19 16.078 14.347 C16.078 14.213 16.078 14.114 16.078 14.042 L16.06 14.025 C16.034 13.997 15.982 13.997 15.951 14.026 L15.932 14.044 15.932 14.347 15.932 15.19 15.9 15.195 C15.704 15.227 15.556 15.3 15.433 15.426 L15.387 15.472 14.585 14.926 Z" fill="#ffffff" fill-opacity="1" stroke="none"/>
  <path id="path3080" d="M16.005 4.003 L5.625 9.996 5.625 21.981 16.005 27.974 26.384 21.981 26.384 9.996 16.005 4.003 Z M16.005 7.113 L23.691 11.551 23.691 20.427 16.005 24.864 8.317 20.427 8.317 11.551 16.005 7.113 Z" fill="#ffffff" fill-opacity="1" stroke="none"/>
  <path id="path3084" d="M16.005 7.669 L8.799 11.829 8.799 20.149 16.005 24.309 23.21 20.149 23.21 11.829 16.005 7.669 Z M16.005 8.217 L22.734 12.103 22.734 19.875 16.005 23.76 9.275 19.875 9.275 12.103 16.005 8.217 Z" fill="#ffffff" fill-opacity="1" stroke="none"/>
 </g>
</svg>
